<?xml version="1.0" encoding="UTF-8" standalone="no"?>
<svg width="316px" height="245px" viewBox="0 0 316 245" version="1.1" xmlns="http://www.w3.org/2000/svg" xmlns:xlink="http://www.w3.org/1999/xlink">
    <!-- Generator: Sketch 48.2 (47327) - http://www.bohemiancoding.com/sketch -->
    <title>Group 3</title>
    <desc>Created with Sketch.</desc>
    <defs>
        <rect id="path-1" x="14" y="38" width="156" height="150" rx="5"></rect>
        <rect id="path-2" x="8" y="29" width="168" height="150" rx="5"></rect>
        <rect id="path-3" x="0" y="10" width="184" height="160" rx="8"></rect>
        <rect id="path-4" x="0" y="10" width="184" height="43" rx="8"></rect>
        <rect id="path-5" x="83" y="0" width="18" height="25" rx="8"></rect>
        <rect id="path-6" x="50" y="0" width="18" height="25" rx="8"></rect>
        <rect id="path-7" x="116" y="0" width="18" height="25" rx="8"></rect>
        <rect id="path-8" x="149" y="0" width="18" height="25" rx="8"></rect>
        <rect id="path-9" x="17" y="0" width="18" height="25" rx="8"></rect>
    </defs>
    <g id="个人中心-我的活动--空" stroke="none" stroke-width="1" fill="none" fill-rule="evenodd" transform="translate(-212.000000, -290.000000)">
        <g id="Group-3" transform="translate(212.000000, 290.000000)">
            <g id="Group" transform="translate(71.000000, 22.000000)">
                <g id="Rectangle-5">
                    <use fill="#F6F6F6" fill-rule="evenodd" xlink:href="#path-1"></use>
                    <rect stroke="#E2E2E2" stroke-width="5" x="16.5" y="40.5" width="151" height="145" rx="5"></rect>
                </g>
                <g id="Rectangle-5-Copy-2">
                    <use fill="#F6F6F6" fill-rule="evenodd" xlink:href="#path-2"></use>
                    <rect stroke="#E2E2E2" stroke-width="5" x="10.5" y="31.5" width="163" height="145" rx="5"></rect>
                </g>
                <g id="Rectangle-5-Copy">
                    <use fill="#F6F6F6" fill-rule="evenodd" xlink:href="#path-3"></use>
                    <rect stroke="#E2E2E2" stroke-width="5" x="2.5" y="12.5" width="179" height="155" rx="8"></rect>
                </g>
                <rect id="Rectangle-8" fill="#EFEFEF" x="5" y="52" width="174" height="10"></rect>
                <g id="Rectangle-5-Copy-3">
                    <use fill="#EEEEEE" fill-rule="evenodd" xlink:href="#path-4"></use>
                    <rect stroke="#E2E2E2" stroke-width="5" x="2.5" y="12.5" width="179" height="38" rx="8"></rect>
                </g>
                <rect id="Rectangle-6" fill="#E2E2E2" x="3" y="48" width="179" height="5" rx="2.5"></rect>
                <g id="Rectangle-11">
                    <use fill="#F6F6F6" fill-rule="evenodd" xlink:href="#path-5"></use>
                    <rect stroke="#E2E2E2" stroke-width="5" x="85.5" y="2.5" width="13" height="20" rx="6.5"></rect>
                </g>
                <g id="Rectangle-11-Copy">
                    <use fill="#F6F6F6" fill-rule="evenodd" xlink:href="#path-6"></use>
                    <rect stroke="#E2E2E2" stroke-width="5" x="52.5" y="2.5" width="13" height="20" rx="6.5"></rect>
                </g>
                <g id="Rectangle-11-Copy-2">
                    <use fill="#F6F6F6" fill-rule="evenodd" xlink:href="#path-7"></use>
                    <rect stroke="#E2E2E2" stroke-width="5" x="118.5" y="2.5" width="13" height="20" rx="6.5"></rect>
                </g>
                <g id="Rectangle-11-Copy-3">
                    <use fill="#F6F6F6" fill-rule="evenodd" xlink:href="#path-8"></use>
                    <rect stroke="#E2E2E2" stroke-width="5" x="151.5" y="2.5" width="13" height="20" rx="6.5"></rect>
                </g>
                <g id="Rectangle-11-Copy-4">
                    <use fill="#F6F6F6" fill-rule="evenodd" xlink:href="#path-9"></use>
                    <rect stroke="#E2E2E2" stroke-width="5" x="19.5" y="2.5" width="13" height="20" rx="6.5"></rect>
                </g>
            </g>
            <g id="Group-5" opacity="0.815330616" transform="translate(125.000000, 109.000000)">
                <ellipse id="Oval-4" fill="#E2E2E2" cx="5.97653475" cy="5.98777358" rx="5.57553563" ry="5.59154717"></ellipse>
                <ellipse id="Oval-4-Copy" fill="#E2E2E2" cx="69.696942" cy="5.98777358" rx="5.57553563" ry="5.59154717"></ellipse>
                <path d="M51.9501665,38.4052095 C49.507047,33.4104072 44.2171986,29.9515472 38.0851876,29.9515472 C32.0159661,29.9515472 26.7717485,33.3399351 24.2961518,38.2522602" id="Oval-10" stroke="#E2E2E2" stroke-width="4" stroke-linecap="round"></path>
            </g>
            <ellipse id="Oval-5" fill="#F9F9F9" cx="163" cy="235" rx="61" ry="10"></ellipse>
            <path d="M77.9453125,61.9355469 L251.537622,61.9355469" id="Path-2" stroke="#E2E2E2" stroke-width="4" stroke-dasharray="9,9"></path>
            <path d="M73,3 L73,17.6449071" id="Path-4" stroke="#E2E2E2" stroke-width="5" stroke-linecap="round"></path>
            <path d="M38.6775464,42.3224536 L53.3224536,42.3224536" id="Path-4-Copy-2" stroke="#E2E2E2" stroke-width="5" stroke-linecap="round"></path>
            <path d="M46,13 L56.3555131,23.3555131" id="Path-4-Copy" stroke="#E2E2E2" stroke-width="5" stroke-linecap="round"></path>
            <circle id="Oval-6" stroke="#EBEBEB" stroke-width="4" cx="42" cy="101" r="8"></circle>
            <circle id="Oval-6-Copy" stroke="#EBEBEB" stroke-width="4" cx="7" cy="136" r="5"></circle>
            <circle id="Oval-6-Copy-2" stroke="#EBEBEB" stroke-width="4" cx="300" cy="166" r="5"></circle>
            <path d="M306,107 L306,103 C306,101.895431 306.895431,101 308,101 C309.104569,101 310,101.895431 310,103 L310,107 L314,107 C315.104569,107 316,107.895431 316,109 C316,110.104569 315.104569,111 314,111 L310,111 L310,115 C310,116.104569 309.104569,117 308,117 C306.895431,117 306,116.104569 306,115 L306,111 L302,111 C300.895431,111 300,110.104569 300,109 C300,107.895431 300.895431,107 302,107 L306,107 Z" id="Combined-Shape" fill="#EBEBEB"></path>
            <path d="M48,157 L48,153 C48,151.895431 48.8954305,151 50,151 C51.1045695,151 52,151.895431 52,153 L52,157 L56,157 C57.1045695,157 58,157.895431 58,159 C58,160.104569 57.1045695,161 56,161 L52,161 L52,165 C52,166.104569 51.1045695,167 50,167 C48.8954305,167 48,166.104569 48,165 L48,161 L44,161 C42.8954305,161 42,160.104569 42,159 C42,157.895431 42.8954305,157 44,157 L48,157 Z" id="Combined-Shape-Copy" fill="#EBEBEB"></path>
            <path d="M275,149 L275,145 C275,143.895431 275.895431,143 277,143 C278.104569,143 279,143.895431 279,145 L279,149 L283,149 C284.104569,149 285,149.895431 285,151 C285,152.104569 284.104569,153 283,153 L279,153 L279,157 C279,158.104569 278.104569,159 277,159 C275.895431,159 275,158.104569 275,157 L275,153 L271,153 C269.895431,153 269,152.104569 269,151 C269,149.895431 269.895431,149 271,149 L275,149 Z" id="Combined-Shape-Copy-2" fill="#EBEBEB"></path>
        </g>
    </g>
</svg>