<?xml version="1.0" standalone="no"?><!DOCTYPE svg PUBLIC "-//W3C//DTD SVG 1.1//EN" "http://www.w3.org/Graphics/SVG/1.1/DTD/svg11.dtd"><svg t="1514516875955" class="icon" style="" viewBox="0 0 1024 1024" version="1.1" xmlns="http://www.w3.org/2000/svg" p-id="1412" xmlns:xlink="http://www.w3.org/1999/xlink" width="200" height="200"><defs><style type="text/css"></style></defs><path d="M517.674667 0C750.08 0 938.453333 177.749333 938.666667 397.653333a380.672 380.672 0 0 1-75.221334 226.602667c-2.048 3.328-4.224 6.826667-6.826666 10.197333l-286.72 340.992c-14.378667 17.92-33.152 26.410667-52.138667 26.410667-18.986667 0-37.973333-8.618667-52.224-26.453333l-286.805333-340.864c-2.858667-3.242667-4.821333-6.826667-7.168-10.538667A381.269333 381.269333 0 0 1 96.64 397.610667C96.64 177.749333 285.354667 0 517.674667 0z m0 556.672c92.928 0 168.32-71.296 168.405333-159.061333 0-87.722667-75.52-159.018667-168.405333-159.018667-93.013333 0-168.448 71.210667-168.448 159.018667 0 87.765333 75.392 159.061333 168.448 159.061333z" p-id="1413"></path></svg>