<?xml version="1.0" standalone="no"?><!DOCTYPE svg PUBLIC "-//W3C//DTD SVG 1.1//EN" "http://www.w3.org/Graphics/SVG/1.1/DTD/svg11.dtd"><svg t="1514369746643" class="icon" style="" viewBox="0 0 1152 1024" version="1.1" xmlns="http://www.w3.org/2000/svg" p-id="1123" xmlns:xlink="http://www.w3.org/1999/xlink" width="225" height="200"><defs><style type="text/css"></style></defs><path d="M992.11072 599.008v374.976a51.2 51.2 0 0 1-13.184 35.2c-8.8 9.856-19.2 14.816-31.264 14.816h-274.112v-192.896a96 96 0 0 0-96-96h-3.616a96 96 0 0 0-96 96V1024H204.59072c-12.032 0-22.464-4.96-31.264-14.848A51.2 51.2 0 0 1 160.11072 973.984V599.04c0.576-3.392 0.704-4.16 0.704-4.704L576.11072 224.16l415.296 370.144a12.096 12.096 0 0 1 0.704 4.704z m96-31.488a23.488 23.488 0 0 1-14.816 8.384c-8.224 0-13.152-1.76-16.928-5.344L576.11072 130.56 80.55872 570.56c-5.632 4.096-11.264 5.856-16.928 5.344a23.488 23.488 0 0 1-14.784-8.384L5.13472 511.072a26.144 26.144 0 0 1-4.96-17.92 22.784 22.784 0 0 1 7.776-16.416L514.89472 19.84C529.93472 6.624 555.43872 0 576.11072 0c20.672 0 30.912 6.624 45.952 19.84l172.032 155.616 181.344 162.88M992.11072 352l152.288 154.784a26.816 26.816 0 0 1 7.648 18.304 32 32 0 0 1-4.896 19.968L1104.04672 608" p-id="1124"></path></svg>