<?xml version="1.0" standalone="no"?><!DOCTYPE svg PUBLIC "-//W3C//DTD SVG 1.1//EN" "http://www.w3.org/Graphics/SVG/1.1/DTD/svg11.dtd"><svg t="1514361941629" class="icon" style="" viewBox="0 0 1024 1024" version="1.1" xmlns="http://www.w3.org/2000/svg" p-id="1194" xmlns:xlink="http://www.w3.org/1999/xlink" width="200" height="200"><defs><style type="text/css"></style></defs><path d="M800 96h96a128 128 0 0 1 128 128v672a128 128 0 0 1-128 128H128a128 128 0 0 1-128-128V224a128 128 0 0 1 128-128h96V48A48 48 0 0 1 272 0h32A48 48 0 0 1 352 48V96h320V48A48 48 0 0 1 720 0h32A48 48 0 0 1 800 48V96zM208 352a48 48 0 0 0 0 96h608a48 48 0 0 0 0-96h-608z m0 256a48 48 0 0 0 0 96h416a48 48 0 0 0 0-96h-416z" p-id="1195"></path></svg>