<?xml version="1.0" standalone="no"?><!DOCTYPE svg PUBLIC "-//W3C//DTD SVG 1.1//EN" "http://www.w3.org/Graphics/SVG/1.1/DTD/svg11.dtd"><svg t="1514369738524" class="icon" style="" viewBox="0 0 1024 1024" version="1.1" xmlns="http://www.w3.org/2000/svg" p-id="999" xmlns:xlink="http://www.w3.org/1999/xlink" width="200" height="200"><defs><style type="text/css"></style></defs><path d="M621.28 576.48h-218.56C215.552 576.608 63.904 731.872 64 923.296v22.4C64 1023.904 215.68 1024 402.72 1024h218.56C808.32 1024 960 1021.12 960 945.664v-22.4c0.096-191.392-151.552-346.656-338.72-346.784z m-120.192-39.456c144.864-0.128 262.24-120.32 262.176-268.48C763.264 120.16 645.888 0 501.12 0c-69.6 0-136.32 28.32-185.504 78.688A271.456 271.456 0 0 0 238.848 268.48c0 148.256 117.44 268.48 262.24 268.48v0.064z" p-id="1000"></path></svg>