<?xml version="1.0" standalone="no"?><!DOCTYPE svg PUBLIC "-//W3C//DTD SVG 1.1//EN" "http://www.w3.org/Graphics/SVG/1.1/DTD/svg11.dtd"><svg t="1514361905979" class="icon" style="" viewBox="0 0 1024 1024" version="1.1" xmlns="http://www.w3.org/2000/svg" p-id="1070" xmlns:xlink="http://www.w3.org/1999/xlink" width="200" height="200"><defs><style type="text/css"></style></defs><path d="M980.866696 426.533342l-31.998-11.487282a106.71333 106.71333 0 0 1-63.964003-59.292295 106.137366 106.137366 0 0 1 0-86.71458l14.719081-30.590088a63.580026 63.580026 0 0 0-12.799201-72.667458l-33.91788-33.789888a64.15599 64.15599 0 0 0-72.95544-12.767203l-30.71808 14.655085a107.1933 107.1933 0 0 1-87.002562 0 106.617336 106.617336 0 0 1-59.516281-63.740017l-7.03956-28.062246A63.996 63.996 0 0 0 535.582526 0h-47.35704a63.996 63.996 0 0 0-60.15624 42.07737l-11.51928 31.870008a106.617336 106.617336 0 0 1-59.484283 63.772015 107.1933 107.1933 0 0 1-87.03456 0l-30.71808-14.655085a64.15599 64.15599 0 0 0-72.923442 12.735205L132.471721 169.589401a63.580026 63.580026 0 0 0-12.799201 72.699456l14.719081 30.590088a106.137366 106.137366 0 0 1 0 86.71458 106.71333 106.71333 0 0 1-63.996001 59.292295l-31.998 11.487282A63.772014 63.772014 0 0 0 0 486.465596v47.165052c0.095994 27.03831 17.27892 51.03681 42.87732 59.932254l31.998 11.51928c28.7982 9.75939 52.092744 31.326042 63.996001 59.260297a106.137366 106.137366 0 0 1 0 86.71458l-14.719081 30.590088a63.580026 63.580026 0 0 0 12.799201 72.699456l33.885882 33.789888a64.15599 64.15599 0 0 0 72.95544 12.735205l30.71808-14.655085a107.1933 107.1933 0 0 1 87.002562 0 106.617336 106.617336 0 0 1 59.516281 63.772015l11.51928 31.870008A63.996 63.996 0 0 0 492.705206 1023.936004h47.325042a63.996 63.996 0 0 0 60.15624-42.07737l11.51928-31.230048c10.015374-28.7982 31.902006-52.028748 60.156241-63.772015a105.91338 105.91338 0 0 1 85.722642 0l31.35804 14.655085a64.15599 64.15599 0 0 0 72.95544-12.735205l33.885882-33.789888a63.580026 63.580026 0 0 0 12.799201-72.699456l-14.719081-30.590088a106.137366 106.137366 0 0 1 0-86.07462 106.71333 106.71333 0 0 1 63.996001-59.292295l31.998-11.487282a63.708018 63.708018 0 0 0 33.91788-61.212174v-47.165052a63.772014 63.772014 0 0 0-42.87732-59.932254z m-280.878445 121.144428a191.828011 191.828011 0 0 1-200.851447 153.334417 191.604025 191.604025 0 0 1-178.900819-178.260859 191.380039 191.380039 0 0 1 153.910381-200.147491c62.908068-12.543216 127.992 7.103556 173.333167 52.31673a190.836073 190.836073 0 0 1 52.508718 172.757203z" p-id="1071"></path></svg>