<?xml version="1.0" standalone="no"?><!DOCTYPE svg PUBLIC "-//W3C//DTD SVG 1.1//EN" "http://www.w3.org/Graphics/SVG/1.1/DTD/svg11.dtd"><svg t="1514361865372" class="icon" style="" viewBox="0 0 1057 1024" version="1.1" xmlns="http://www.w3.org/2000/svg" p-id="946" xmlns:xlink="http://www.w3.org/1999/xlink" width="206.4453125" height="200"><defs><style type="text/css"></style></defs><path d="M957.935484 235.387871c56.980645 14.666323 99.096774 66.394839 99.096774 127.966968v528.516129a132.129032 132.129032 0 0 1-132.129032 132.129032H132.129032a132.129032 132.129032 0 0 1-132.129032-132.129032V363.354839a132.195097 132.195097 0 0 1 99.096774-127.966968V132.129032a132.129032 132.129032 0 0 1 132.129032-132.129032h594.580646a132.129032 132.129032 0 0 1 132.129032 132.129032v103.258839zM300.032 66.064516a132.129032 132.129032 0 0 0-132.129032 132.129032v233.604129a132.129032 132.129032 0 0 0 55.097806 107.354839L530.398968 759.741935l301.782709-220.556387a132.129032 132.129032 0 0 0 54.172904-106.694193V198.193548a132.129032 132.129032 0 0 0-132.129033-132.129032H300.032z m233.967484 447.091613c-113.036387-58.731355-179.100903-124.795871-198.193549-198.193548-28.638968-110.063484 57.410065-215.370323 198.193549-99.096775 137.94271-113.597935 231.919484-11.726452 198.193548 99.096775-22.461935 73.893161-88.526452 139.957677-198.193548 198.193548z" p-id="947"></path></svg>